# xmcd
#
# Track frame offsets: 
#        150
#        21045
#        41382
#        62215
#
# Disc length: 1158 seconds
#
# Revision: 2
# Processed by: cddbd v1.5.2PL0 Copyright (c) Steve Scherf et al.
# Submitted via: ExactAudioCopy v0.95a5
#
DISCID=2a048404
DTITLE=Milestone - I Care 'Bout You
DYEAR=1997
DGENRE=R&B
TTITLE0=I Care 'Bout You
TTITLE1=Call Me - Album Version
TTITLE2=I Care 'Bout You - Instrumental
TTITLE3=Call Me - Instrumental
EXTD=
EXTT0=
EXTT1=
EXTT2=
EXTT3=
PLAYORDER=
